<?xml version="1.0" encoding="utf-8"?>
<!-- Generator: Adobe Illustrator 24.1.0, SVG Export Plug-In . SVG Version: 6.00 Build 0)  -->
<svg version="1.1" id="Camada_1" xmlns="http://www.w3.org/2000/svg" xmlns:xlink="http://www.w3.org/1999/xlink" x="0px" y="0px"
	 viewBox="0 0 350 150" style="enable-background:new 0 0 350 150;" xml:space="preserve">
<g>
	<path d="M44.66,67.57c9.77,2.01,22.49,6.69,22.35,21.02c0,6.83-2.54,12.18-7.76,15.93c-5.09,3.61-11.51,5.49-19.14,5.49
		c-13.79,0-23.16-5.35-28.11-15.93l14.99-8.43c2.01,5.76,6.29,8.7,13.12,8.7c6.16,0,9.24-1.87,9.24-5.76
		c0-3.61-5.35-5.62-12.18-7.36c-9.91-2.54-22.35-6.69-22.35-20.61c0-6.56,2.41-11.78,7.23-15.53c4.95-3.88,10.98-5.76,18.2-5.76
		c10.84,0,20.21,5.09,25.43,14.19l-14.72,8.03c-2.14-4.55-5.76-6.83-10.71-6.83c-4.42,0-7.76,2.14-7.76,5.49
		C32.48,63.82,37.83,65.83,44.66,67.57z"/>
	<path d="M109.04,110c-9.91,0-18.34-3.35-25.16-10.17C77.05,93,73.71,84.57,73.71,74.66c0-9.91,3.35-18.2,10.17-25.03
		c6.83-6.83,15.26-10.31,25.16-10.31c9.91,0,18.34,3.48,25.16,10.31c6.83,6.83,10.31,15.13,10.31,25.03
		c0,9.91-3.48,18.34-10.31,25.16C127.38,106.65,118.95,110,109.04,110z M109.04,93.13c5.22,0,9.5-1.74,12.98-5.22
		c3.48-3.48,5.22-7.9,5.22-13.25s-1.74-9.77-5.22-13.25c-3.48-3.48-7.76-5.22-12.98-5.22c-5.22,0-9.5,1.74-12.98,5.22
		c-3.35,3.48-5.09,7.9-5.09,13.25s1.74,9.77,5.09,13.25C99.54,91.39,103.82,93.13,109.04,93.13z"/>
	<path d="M256.02,66.9v41.23h-17.27V68.1c0-8.03-4.15-12.72-11.24-12.72c-7.9,0-12.45,5.35-12.45,15.13v37.61h-17.27V68.1
		c0-8.03-4.15-12.72-11.24-12.72c-7.63,0-12.58,5.35-12.58,15.13v37.61H156.7V41.2h17.27v7.09c4.02-6.02,10.17-8.97,18.61-8.97
		c8.17,0,14.32,3.21,18.2,9.64c4.42-6.43,11.11-9.64,19.94-9.64C246.11,39.32,256.02,50.17,256.02,66.9z"/>
	<path d="M321.6,41.2h17.27v66.93H321.6v-7.9c-5.22,6.56-12.45,9.77-21.82,9.77c-8.97,0-16.6-3.35-23.02-10.17
		c-6.29-6.83-9.5-15.26-9.5-25.16c0-9.91,3.21-18.2,9.5-25.03c6.43-6.83,14.05-10.31,23.02-10.31c9.37,0,16.6,3.21,21.82,9.77V41.2z
		 M303,93.54c5.35,0,9.77-1.74,13.25-5.22c3.61-3.61,5.35-8.17,5.35-13.65s-1.74-10.04-5.35-13.52c-3.48-3.61-7.9-5.35-13.25-5.35
		c-5.35,0-9.77,1.74-13.25,5.35c-3.48,3.48-5.22,8.03-5.22,13.52s1.74,10.04,5.22,13.65C293.23,91.8,297.64,93.54,303,93.54z"/>
</g>
</svg>
