<svg xmlns="http://www.w3.org/2000/svg" xmlns:xlink="http://www.w3.org/1999/xlink" version="1.1" id="Layer_1" x="0px" y="0px" viewBox="0 0 1080 1080" style="enable-background:new 0 0 1080 1080;" xml:space="preserve">
<style xmlns="http://www.w3.org/2000/svg" type="text/css">
	.st0{opacity:0.1;fill:#ff5b5c;}
	.st1{opacity:0.33;fill:#2A94F4;}
	.st2{fill:#F7F7F7;}
	.st3{opacity:0.61;fill:#2A94F4;}
	.st4{fill:#FA968C;}
	.st5{fill:#0B4870;}
	.st6{fill:#FAB9AF;}
	.st7{fill:#ff5b5c;}
	.st8{fill:#D3D3D3;}
	.st9{opacity:0.78;fill:#F7F7F7;}
	.st10{fill:#0E538C;}
	.st11{fill:#2A94F4;}
	.st12{opacity:0.4;fill:#2A94F4;}
</style>
<path xmlns="http://www.w3.org/2000/svg" class="st0" d="M228.12,823.32c0,0-38.07-80.83,25.29-130.82s-52.85-100.74-10.91-162.83s184.5-11.76,180.91-126.78  c-3.59-115.01,116.21-146.16,155.75-111.42c39.54,34.74,44.97,204.09,158.47,185.91S957.74,699.18,866.68,823L228.12,823.32z"/>
<rect xmlns="http://www.w3.org/2000/svg" x="291.53" y="353" class="st1" width="534.88" height="325.45"/>
<rect xmlns="http://www.w3.org/2000/svg" x="318.66" y="377.37" class="st2" width="480.61" height="276.7"/>
<rect xmlns="http://www.w3.org/2000/svg" x="318.66" y="377.37" class="st3" width="480.61" height="4.51"/>
<path xmlns="http://www.w3.org/2000/svg" class="st4" d="M269.56,762.91c0,0-12.29,14.15-14.55,16.4c-1.86,1.86-4.51,2.54-7.04,3.25c-0.81,0.23-1.87,1.06-2.76,1.76  c-0.72,0.56-1.05,1.44-1.03,2.35c0.29,15.92,14.15,27.09,14.89,26.15c1.33-1.68,0.32-6.35-2.33-9.42c-2.67-3.1-3.31-7.46-2.12-11.37  l0,0c0.95-3.11,2.68-5.92,5.03-8.17l10.69-10L269.56,762.91z"/>
<path xmlns="http://www.w3.org/2000/svg" class="st4" d="M395.19,783.03l9.78,16.34c2.99,4.99,4.09,10.91,3.1,16.64c0,0,0,0,0,0c-0.56,3.21,1.85,6.16,5.11,6.24  c10.53,0.26,30.89,0.64,31.48-0.32c2.99-4.88-9.89-7.07-20.01-10.5c-6.82-2.31-15.22-20.78-20.54-35.32l-7.98,5.05  C395.51,781.58,395.16,782.29,395.19,783.03z"/>
<path xmlns="http://www.w3.org/2000/svg" class="st5" d="M424.45,817.06c4.32,0,8.73-0.99,12.81-1.8c0.47-0.09,0.95-0.06,1.4,0.1c4.72,1.67,7.58,3.98,5.99,6.57  c-0.64,1.04-24.6,0.5-33.95,0.25c-1.96-0.05-3.39-1.83-3.05-3.76l0.61-3.51C413.55,816.26,418.97,817.06,424.45,817.06z"/>
<path xmlns="http://www.w3.org/2000/svg" class="st5" d="M360.21,598.53c-10.81-2.16-23.72,6.69-26.5,20.6c-1.6,7.99-3.96,37.78-3.62,62.08  c0.13,9.33-4.35,18.3-12.32,23.15c-1.3,0.79-2.49,1.66-3.52,2.6c-5.33,4.87-30.14,35.96-45.69,57.06c-0.49,3.3,0,7.86,1.85,10.03  c19.9-15.59,53.64-44.95,59.32-50.13c3.15-2.88,6.67-6.25,9.54-9.56c12.22-8.19,32.07-70.74,34.65-83.65  C376.69,616.8,371.02,600.7,360.21,598.53z"/>
<ellipse xmlns="http://www.w3.org/2000/svg" class="st5" cx="353.46" cy="508.33" rx="16.81" ry="21.69"/>
<path xmlns="http://www.w3.org/2000/svg" class="st5" d="M349.43,510.57c-0.27-12.01-9.99-22.1-21.98-22.78c-10.64-0.61-19.82,5.91-23.26,15.21  c-1.2,3.26-4.4,5.38-7.88,5.33c-1.44-0.02-2.93,0.11-4.44,0.42c-8.79,1.8-15.61,9.22-16.53,18.14c-0.83,8.05,2.93,15.27,8.98,19.39  c2.58,1.76,4.05,4.67,4.48,7.76c1.98,14.31,15.05,24.82,29.95,23.19c12.75-1.4,22.95-11.89,24.03-24.66  c0.67-7.84-2.03-15.03-6.76-20.36C344.1,528.39,349.64,520.13,349.43,510.57z"/>
<path xmlns="http://www.w3.org/2000/svg" class="st5" d="M353.46,479.53c0,0,9.46,5.95,8.31,13.97c0,0,5.05-3.58,6.2-15.9C368.76,469.06,353.46,479.53,353.46,479.53z"/>
<g xmlns="http://www.w3.org/2000/svg">
	<path class="st6" d="M372.78,528.4c-0.13,3.99,0.15,8.05,0.79,12c0.62,3.94,1.66,7.83,3.17,11.2c0.75,1.68,1.62,3.22,2.56,4.4   c0.94,1.2,1.9,1.9,2.53,2.14c0.33,0.13,0.61,0.19,1.01,0.17c0.39-0.03,0.9-0.14,1.48-0.42c1.17-0.58,2.55-1.64,3.81-3.02   c2.56-2.75,4.82-6.33,6.79-10.08c1.99-3.76,3.75-7.74,5.39-11.79c1.64-4.06,3.11-8.21,4.52-12.4c1.41-4.19,2.73-8.43,3.97-12.7   l0-0.01c0.31-1.06,1.42-1.67,2.49-1.36c0.98,0.29,1.58,1.26,1.42,2.25c-1.44,8.87-3.16,17.73-5.63,26.52   c-1.22,4.4-2.63,8.77-4.41,13.1c-1.78,4.33-3.85,8.64-6.96,12.8c-1.58,2.06-3.48,4.12-6.16,5.81c-1.35,0.83-2.95,1.54-4.75,1.93   c-1.79,0.39-3.78,0.39-5.62-0.02c-1.84-0.4-3.49-1.17-4.9-2.07c-1.4-0.9-2.6-1.93-3.62-2.99c-2.05-2.14-3.57-4.41-4.83-6.71   c-2.49-4.61-4.08-9.34-5.22-14.13c-1.1-4.8-1.7-9.67-1.84-14.6l0-0.03c-0.11-3.87,2.94-7.09,6.8-7.2c3.87-0.11,7.09,2.94,7.2,6.8   C372.79,528.11,372.79,528.27,372.78,528.4z"/>
</g>
<path xmlns="http://www.w3.org/2000/svg" class="st6" d="M364.05,569.96c3.79-11.41,11.4-35.56,10.75-43.46c-0.42-5.06-4.64-8.93-9.72-8.93h-32.93  c-5.46,0-9.93,4.33-10.08,9.79c-0.28,9.54,4.12,31.24,6.59,42.6H364.05z"/>
<path xmlns="http://www.w3.org/2000/svg" class="st6" d="M357.56,621.46c3.79,13.67,34.57,110.87,23.95,113.81c-10.62,2.94-68.44-91.96-69.18-106.13  c-0.7-13.44,7.09-28,17.71-30.94C340.67,595.27,353.78,607.79,357.56,621.46z"/>
<path xmlns="http://www.w3.org/2000/svg" class="st5" d="M405.17,779.99c0.39-0.46,0.48-1.11,0.28-1.68c-8.23-22.79-19.28-51.65-21.64-57.1  c-0.27-0.62-0.55-1.23-0.85-1.82c-4.02-28.82-22.51-87.52-25.39-97.92c-3.79-13.67-16.89-26.19-27.52-23.25  c-10.62,2.94-18.41,17.5-17.71,30.94c0.46,8.87,23.28,49.36,42.9,77.7c4.13,5.96,6.72,12.81,7.98,19.96  c0.87,4.94,2.27,9.87,3.83,13.47c2.32,5.37,15.92,25.85,28.08,43.22c0.35,0.5,0.94,0.8,1.55,0.74  C399.9,783.9,402.95,782.6,405.17,779.99z"/>
<path xmlns="http://www.w3.org/2000/svg" class="st7" d="M324.89,584.42c1.7-4.78,2.22-9.9,1.5-14.93c-1.66-11.67-4.56-33.65-4.3-42.98c0.14-4.99,4.23-8.94,9.22-8.94  h4.88c1.86,4.31,5.8,7.64,11.93,7.64c6.12,0,10.06-3.33,11.92-7.64h4.58c-4.98,10.67-3.19,24.74,5.38,32.95  c-1.59,5.63-2.93,11.3-3.93,15.89c-1.36,6.22-0.76,12.7,1.69,18.58c4.21,10.1,7.54,26.3,6.55,32.71  c-34.64,9.82-58.59-7.56-58.59-7.56L324.89,584.42z"/>
<g xmlns="http://www.w3.org/2000/svg">
	<polygon class="st6" points="353.46,519.84 338.53,518.27 343.25,501.93 352.91,503.12  "/>
</g>
<path xmlns="http://www.w3.org/2000/svg" class="st4" d="M352.91,503.12l-9.66-1.2l-1.48,5.1c2.16,2.44,4.94,7.71,8.46,7.71c1.12,0,2.13-0.31,3.05-0.89L352.91,503.12z"/>
<path xmlns="http://www.w3.org/2000/svg" class="st6" d="M353.25,511.02c-3.28,0-6.83-1.64-11.72-5.91c-2.81-2.45-4.89-6.73-4.89-9.61v-15.97h24.59  c0,0,1.85,8.48,0.05,16.9C359.95,502.74,355.83,511.03,353.25,511.02z"/>
<path xmlns="http://www.w3.org/2000/svg" class="st6" d="M340.82,492.48c0,3.12-1.49,5.64-3.33,5.64c-1.84,0-3.87-4.08-3.87-7.2c0-3.12,2.03-4.08,3.87-4.08  C339.32,486.83,340.82,489.36,340.82,492.48z"/>
<path xmlns="http://www.w3.org/2000/svg" class="st5" d="M333.62,481.46c0-4.99,4.04-9.03,9.03-9.03l8.3,0c2.37,0,4.68-0.62,6.7-1.77c2.93-1.66,6.63-1.11,8.63,1.6  c2.16,2.93,3.09,6.85-2.38,10.48c-2.72,1.81-6.7-0.19-9.35,0.67c-0.16-0.01-0.31-0.03-0.48-0.03h-7.32c-2.54,0-4.49,2.08-4.56,4.62  c-0.05,1.61-1.36,2.9-2.98,2.9h-0.33l-1.17-3.75l-4.08,5.51V481.46z"/>
<path xmlns="http://www.w3.org/2000/svg" class="st6" d="M414.42,499.1c0,0,1.72,8.49-0.7,9.87c-2.42,1.38-4.29,1.87-6.44-1.57c-2.15-3.44-3.45-9.19-3.54-12.79  c-0.09-3.6,2.3-9.7,2.99-10.19c2.5-1.76,1.98,4.78,1.89,7.96c-0.1,3.18,0.11,6.78,1.65,6.4c1.54-0.39,1.27-6.49,2.89-7.52  C414.79,490.23,414.42,499.1,414.42,499.1z"/>
<path xmlns="http://www.w3.org/2000/svg" class="st5" d="M359.41,479.25c-0.82,3.65,0.39,5.64-11.57,11.34c-11.96,5.7-15.75,3.26-19.48,9.39c0,0,1.63-10.16,8.24-13.64  c6.61-3.49,18.06-5.76,21.74-13.84C358.33,472.5,359.97,476.75,359.41,479.25z"/>
<path xmlns="http://www.w3.org/2000/svg" class="st5" d="M357.11,479.93c0,0,0.45,12.29,11.19,18.19c0,0-4.73-9.29-4.41-15.36C364.21,476.68,356.4,475.73,357.11,479.93  z"/>
<g xmlns="http://www.w3.org/2000/svg">
	<g>
		<polygon class="st8" points="684,418.32 682,418.32 682,413.32 677,413.32 677,411.32 684,411.32   "/>
	</g>
	<g>
		<path class="st8" d="M684,555.56h-2v-11.44h2V555.56z M684,532.69h-2v-11.44h2V532.69z M684,509.82h-2v-11.44h2V509.82z     M684,486.94h-2V475.5h2V486.94z M684,464.07h-2v-11.44h2V464.07z M684,441.19h-2v-11.44h2V441.19z"/>
	</g>
	<g>
		<polygon class="st8" points="684,574 677,574 677,572 682,572 682,567 684,567   "/>
	</g>
	<g>
		<path class="st8" d="M665,574h-12v-2h12V574z M641,574h-12v-2h12V574z M617,574h-12v-2h12V574z M593,574h-12v-2h12V574z M569,574    h-12v-2h12V574z M545,574h-12v-2h12V574z M521,574h-12v-2h12V574z M497,574h-12v-2h12V574z M473,574h-12v-2h12V574z"/>
	</g>
	<g>
		<polygon class="st8" points="449,574 442,574 442,567 444,567 444,572 449,572   "/>
	</g>
	<g>
		<path class="st8" d="M444,555.54h-2v-11.46h2V555.54z M444,532.62h-2v-11.46h2V532.62z M444,509.69h-2v-11.46h2V509.69z     M444,486.77h-2v-11.46h2V486.77z M444,463.85h-2v-11.46h2V463.85z M444,440.92h-2v-11.46h2V440.92z"/>
	</g>
	<g>
		<polygon class="st8" points="444,418 442,418 442,411 449,411.01 449,413.01 444,413   "/>
	</g>
	<g>
		<path class="st8" d="M665,413.31l-12-0.02l0-2l12,0.02L665,413.31z M641,413.28l-12-0.02l0-2l12,0.02L641,413.28z M617,413.25    l-12-0.02l0-2l12,0.02L617,413.25z M593,413.21l-12-0.02l0-2l12,0.02L593,413.21z M569,413.18l-12-0.02l0-2l12,0.02L569,413.18z     M545,413.14l-12-0.02l0-2l12,0.02L545,413.14z M521,413.11l-12-0.02l0-2l12,0.02L521,413.11z M497,413.08l-12-0.02l0-2l12,0.02    L497,413.08z M473,413.04l-12-0.02l0-2l12,0.02L473,413.04z"/>
	</g>
</g>
<path xmlns="http://www.w3.org/2000/svg" class="st5" d="M239.05,789.4c-0.4-1-0.02-2.15,0.91-2.7c0.76-0.45,2.8-1.71,4.33-2.65c0.67-0.41,1.5,0.03,1.59,0.8  c0.99,8.8,4.98,16.77,12.46,20.57c1.95,2.6,2.23,7.06,1.18,8.39c-0.25,0.31-3.75-0.85-6.69-4.21  C239.78,794.64,239.05,789.4,239.05,789.4z"/>
<g xmlns="http://www.w3.org/2000/svg">
	<rect x="408" y="394" class="st7" width="253" height="166"/>
	<rect x="416" y="404" class="st9" width="236" height="120"/>
	<path class="st7" d="M564,496c0,20.99-19.01,18-40,18s-36,2.99-36-18s17.01-38,38-38S564,475.01,564,496z"/>
	<polygon class="st7" points="416,524.17 476,473 529,524  "/>
	<polygon class="st7" points="486.74,524.17 574.49,448 652,523.92  "/>
	<rect x="416" y="524" class="st10" width="235.79" height="23"/>
</g>
<path xmlns="http://www.w3.org/2000/svg" class="st6" d="M451.11,555.84c0,0-8.55-1.4-9.84,1.07c-1.29,2.47-1.71,4.36,1.82,6.37c3.52,2.01,9.31,3.1,12.92,3.05  c3.6-0.04,9.61-2.67,10.07-3.38c1.67-2.57-4.85-1.8-8.03-1.58c-3.17,0.22-6.78,0.15-6.45-1.41c0.33-1.56,6.44-1.52,7.4-3.18  C459.95,555.14,451.11,555.84,451.11,555.84z"/>
<g xmlns="http://www.w3.org/2000/svg">
	<path class="st6" d="M335.43,526.32l-0.02-0.12c0-0.01,0.01,0.02,0.01,0.03l0.02,0.07l0.07,0.26l0.18,0.61   c0.15,0.44,0.31,0.89,0.51,1.36c0.37,0.93,0.83,1.88,1.37,2.81c1.06,1.86,2.39,3.65,3.89,5.34c3.06,3.35,6.79,6.35,11.01,8.79   c4.2,2.48,8.81,4.5,13.61,6.17c4.83,1.64,9.84,2.91,14.95,3.98c10.25,2.03,20.86,2.94,31.55,3.35l4.01,0.14l4.02,0.02l4.03,0.01   c1.34,0.01,2.69-0.06,4.03-0.07c2.69-0.07,5.39-0.04,8.09-0.2c2.69-0.14,5.4-0.24,8.1-0.34l0.05,0c1.11-0.04,2.04,0.82,2.08,1.93   c0.04,1.01-0.67,1.87-1.63,2.05c-5.37,1.01-10.77,1.95-16.21,2.69c-2.71,0.44-5.45,0.68-8.19,0.97l-4.11,0.42l-4.13,0.3l-4.13,0.3   l-4.15,0.15c-1.39,0.04-2.77,0.1-4.16,0.11l-4.17-0.03c-5.57,0-11.16-0.42-16.77-1.01c-5.61-0.67-11.22-1.7-16.8-3.17   c-5.57-1.51-11.09-3.56-16.41-6.31c-5.31-2.74-10.37-6.35-14.77-10.89c-2.17-2.3-4.14-4.86-5.83-7.68   c-0.84-1.41-1.61-2.89-2.27-4.47c-0.33-0.78-0.63-1.61-0.91-2.45c-0.13-0.45-0.27-0.87-0.39-1.34c-0.13-0.53-0.22-0.82-0.37-1.74   c-0.56-3.83,2.09-7.38,5.91-7.94C331.32,519.84,334.87,522.49,335.43,526.32z"/>
</g>
<path xmlns="http://www.w3.org/2000/svg" class="st7" d="M663.5,633h-201c-11.32,0-20.5-9.18-20.5-20.5l0,0c0-11.32,9.18-20.5,20.5-20.5h201  c11.32,0,20.5,9.18,20.5,20.5l0,0C684,623.82,674.82,633,663.5,633z"/>
<g xmlns="http://www.w3.org/2000/svg">
	<path class="st11" d="M759.7,419.04c-9.46-0.01-18.92,0.24-28.37-0.08c-10.92-0.37-19.2-5.6-24.91-14.91   c-3.6-5.87-4.88-12.39-3.93-19.03c1.78-12.44,10.54-22.65,23.87-25.52c1.89-0.41,3.8-0.62,5.71-0.46c1.72,0.14,2.28-0.45,2.21-2.2   c-0.31-7.27,1.9-13.78,6.41-19.45c5.21-6.54,11.91-10.41,20.36-11.19c12.23-1.14,21.62,3.55,28.49,13.57   c0.72,1.05,1.13,1.13,2.26,0.35c14.58-10.09,35.88-3.39,42.18,13.2c0.25,0.65,0.57,1.27,0.77,1.92c1.18,3.73,1.18,3.73,4.93,3.78   c10.29,0.13,21.7,8.15,25.57,17.98c0.36,0.92,0.65,1.87,0.97,2.81c-0.97,0.08-1.44,0.7-1.8,1.53c-1.34,3.05-3.47,5.61-5.69,7.98   c-6.81,7.29-15.27,12.12-24.42,15.84c-4.18,1.7-8.49,2.92-12.86,4.05c-5.69,1.47-11.4,2.77-17.16,3.88   c-6-5.95-12.01-11.89-17.99-17.86c-0.79-0.79-1.3-1.3-2.36-0.22c-7.76,7.89-15.58,15.71-23.39,23.55   C760.27,418.72,759.98,418.88,759.7,419.04z M774.89,332.45c-0.9-0.9-1.63-0.56-2.28-0.67c-11.35-2.07-20.47,2-27.73,10.5   c-1.94,2.27-3.48,5.08-4.52,7.89c-1.27,3.42-1.86,7.1-1.5,10.83c0.15,1.56-0.5,2.23-2.12,2.2c-7.63-0.14-14.13,2.61-19.71,7.75   c-3.51,3.23-6.07,7.16-7.63,11.57c-1.7,4.8-2.08,9.89-0.97,14.92c0.54,2.45,0.85,5.08,2.64,7.11c0.75-0.4,0.53-1,0.53-1.5   c0.05-3.06,0-6.11,0.44-9.17c1.19-8.33,4.5-15.46,11.75-20.09c5.24-3.34,11.17-4.87,17.44-4.57c2.03,0.1,2.79-0.4,2.75-2.63   c-0.14-8.48,1.9-16.41,7.32-23.09c3.56-4.4,8.16-7.47,13.76-8.98C768.2,333.67,771.38,333.05,774.89,332.45z"/>
	<path class="st11" d="M810.32,419.03c-0.29-0.15-0.57-0.29-0.86-0.44c-1.73-1.83-3.45-3.67-5.18-5.5   c5.76-1.11,11.48-2.41,17.16-3.88c4.37-1.13,8.68-2.35,12.86-4.05c9.16-3.72,17.62-8.55,24.42-15.84c2.22-2.38,4.35-4.93,5.69-7.98   c0.37-0.83,0.83-1.46,1.8-1.53c3.2,10.38,1.34,19.82-5.41,28.28c-4.26,5.35-9.86,8.67-16.51,10.14c-2.15,0.47-4.38,0.75-6.57,0.77   C828.6,419.08,819.46,419.03,810.32,419.03z"/>
	<path class="st2" d="M802.19,425.99c0-0.3,0.12-0.41,0.41-0.3C802.46,425.8,802.33,425.9,802.19,425.99z"/>
	<path class="st2" d="M816.37,425.47c0.06,0.02,0.12,0.04,0.16,0.08c0.03,0.02,0.02,0.08,0.03,0.12c-0.06-0.07-0.11-0.15-0.17-0.22   C816.39,425.46,816.37,425.47,816.37,425.47z"/>
	<g>
		<path class="st7" d="M759.7,419.04c0.28-0.16,0.56-0.32,0.85-0.47c0.6,0.7,1.42,0.44,2.16,0.44c14.86,0.02,29.73,0.02,44.59,0    c0.74,0,1.55,0.25,2.17-0.41c0.29,0.15,0.57,0.29,0.86,0.44c2.02,2.15,4.03,4.29,6.05,6.44c0,0,0.02-0.02,0.02-0.02    c-4.6,0.08-9.19,0.16-13.79,0.24c-0.29-0.12-0.42,0-0.41,0.3c-0.06,2-0.13,4-0.19,5.99c-1.45,1.42-1.2,3.45-1.66,5.17    c-2.11,7.84-5.72,14.71-11.53,20.47c-1.75,1.73-4.1,2.63-5.59,4.6c-4.61,0.04-9.22,0.04-13.82,0.14    c-1.82,0.04-1.43-1.17-1.43-2.18c-0.01-10.68-0.06-21.37,0.04-32.05c0.02-2.03-0.49-2.64-2.54-2.55    c-3.82,0.17-7.65,0.05-11.93,0.05C755.79,423.22,757.74,421.13,759.7,419.04z"/>
		<path class="st7" d="M783.21,462.23c1.49-1.97,3.84-2.87,5.59-4.6c5.81-5.77,9.43-12.63,11.53-20.47    c0.46-1.72,0.21-3.75,1.66-5.17c0,9.68,0,19.37,0,29.05c-0.49,1.28-1.88,0.58-2.67,1.2C793.96,462.24,788.59,462.23,783.21,462.23    z"/>
		<path class="st7" d="M799.34,462.24c0.79-0.62,2.18,0.08,2.67-1.2C802.07,463.57,800.31,462.02,799.34,462.24z"/>
		<path class="st7" d="M804.28,413.09c1.73,1.83,3.45,3.67,5.18,5.5c-0.62,0.66-1.44,0.41-2.17,0.41c-14.86,0.01-29.73,0.01-44.59,0    c-0.73,0-1.55,0.26-2.16-0.44c7.8-7.84,15.63-15.66,23.39-23.55c1.06-1.08,1.57-0.57,2.36,0.22    C792.28,401.2,798.28,407.14,804.28,413.09z"/>
	</g>
	<path class="st11" d="M774.89,332.45c-3.51,0.6-6.68,1.22-9.83,2.07c-5.6,1.51-10.2,4.59-13.76,8.98   c-5.41,6.68-7.46,14.61-7.32,23.09c0.04,2.23-0.72,2.72-2.75,2.63c-6.27-0.3-12.2,1.23-17.44,4.57   c-7.25,4.63-10.57,11.76-11.75,20.09c-0.44,3.06-0.39,6.11-0.44,9.17c-0.01,0.49,0.22,1.1-0.53,1.5c-1.79-2.03-2.1-4.65-2.64-7.11   c-1.11-5.03-0.73-10.12,0.97-14.92c1.56-4.41,4.12-8.33,7.63-11.57c5.58-5.14,12.08-7.89,19.71-7.75c1.62,0.03,2.27-0.64,2.12-2.2   c-0.36-3.73,0.24-7.41,1.5-10.83c1.04-2.81,2.58-5.62,4.52-7.89c7.27-8.51,16.38-12.58,27.73-10.5   C773.26,331.89,773.99,331.55,774.89,332.45z"/>
</g>
<path xmlns="http://www.w3.org/2000/svg" class="st2" d="M656,619H473c-3.31,0-6-2.69-6-6l0,0c0-3.31,2.69-6,6-6h183c3.31,0,6,2.69,6,6l0,0  C662,616.31,659.31,619,656,619z"/>
<path xmlns="http://www.w3.org/2000/svg" class="st2" d="M896.5,850h-696c-7.46,0-13.5-6.04-13.5-13.5l0,0c0-7.46,6.04-13.5,13.5-13.5h696c7.46,0,13.5,6.04,13.5,13.5  l0,0C910,843.96,903.96,850,896.5,850z"/>
<circle xmlns="http://www.w3.org/2000/svg" class="st7" cx="781.68" cy="761.36" r="20.94"/>
<rect xmlns="http://www.w3.org/2000/svg" x="814.76" y="708.51" transform="matrix(0.8282 0.5604 -0.5604 0.8282 551.2731 -342.4688)" class="st12" width="39.07" height="39.07"/>
<polyline xmlns="http://www.w3.org/2000/svg" class="st5" points="852.68,678.83 891.54,682.84 887.53,721.71 "/>
</svg>