<svg width="24" height="24" viewBox="0 0 24 24" fill="none" xmlns="http://www.w3.org/2000/svg">
<path d="M21 6C21 4.34315 19.6569 3 18 3C16.3431 3 15 4.34315 15 6C15 7.65685 16.3431 9 18 9C19.6569 9 21 7.65685 21 6Z" stroke="black" stroke-width="1.5"/>
<path d="M9 18C9 16.3431 7.65685 15 6 15C4.34315 15 3 16.3431 3 18C3 19.6569 4.34315 21 6 21C7.65685 21 9 19.6569 9 18Z" stroke="black" stroke-width="1.5"/>
<path d="M3 6L15 6" stroke="black" stroke-width="1.5"/>
<path d="M9 18L21 18" stroke="black" stroke-width="1.5"/>
</svg>
