<svg width="24" height="24" viewBox="0 0 24 24" fill="none" xmlns="http://www.w3.org/2000/svg">
<rect x="4.99997" y="19.5" width="10.5" height="17" rx="2" transform="rotate(-90 4.99997 19.5)" stroke="black" stroke-width="1.5"/>
<path d="M5.25 15H3.99997C3.46954 15 2.96083 14.7893 2.58576 14.4142C2.21068 14.0391 1.99997 13.5304 1.99997 13V6.5C1.99997 5.96957 2.21068 5.46086 2.58576 5.08579C2.96083 4.71071 3.46954 4.5 3.99997 4.5H17C17.5304 4.5 18.0391 4.71071 18.4142 5.08579C18.7893 5.46086 19 5.96957 19 6.5V9" stroke="black" stroke-width="1.5"/>
<path d="M15 14.5C15 13.6716 14.3284 13 13.5 13C12.6716 13 12 13.6716 12 14.5C12 15.3284 12.6716 16 13.5 16C14.3284 16 15 15.3284 15 14.5Z" stroke="black" stroke-width="1.5"/>
<path d="M7.99997 14.5H9.99997" stroke="black" stroke-width="1.5"/>
<path d="M17 14.5L19 14.5" stroke="black" stroke-width="1.5"/>
</svg>
