<svg width="24" height="24" viewBox="0 0 24 24" fill="none" xmlns="http://www.w3.org/2000/svg">
<path fill-rule="evenodd" clip-rule="evenodd" d="M4.25 5C4.25 3.48122 5.48122 2.25 7 2.25H17C18.5188 2.25 19.75 3.48122 19.75 5V7C19.75 8.51878 18.5188 9.75 17 9.75H7C5.48122 9.75 4.25 8.51878 4.25 7V5ZM7 3.75C6.30964 3.75 5.75 4.30964 5.75 5V7C5.75 7.69036 6.30964 8.25 7 8.25H17C17.6904 8.25 18.25 7.69036 18.25 7V5C18.25 4.30964 17.6904 3.75 17 3.75H7ZM19 22H5V20.5H19V22ZM5 16H19V14.5H5V16Z" fill="#121212"/>
</svg>
