<svg width="24" height="24" viewBox="0 0 24 24" fill="none" xmlns="http://www.w3.org/2000/svg">
<path fill-rule="evenodd" clip-rule="evenodd" d="M11.25 4.25V1H12.75V4.25H16.1667V5.75H9.91667C9.39075 5.75 8.85177 5.99966 8.43044 6.50526C8.00578 7.01486 7.75 7.73092 7.75 8.5C7.75 9.26908 8.00578 9.98514 8.43044 10.4947C8.85177 11.0003 9.39075 11.25 9.91667 11.25H14.0833C15.1045 11.25 16.0493 11.7378 16.7219 12.545C17.3912 13.3482 17.75 14.4126 17.75 15.5C17.75 16.5874 17.3912 17.6519 16.7219 18.455C16.0493 19.2622 15.1045 19.75 14.0833 19.75H12.75V23H11.25V19.75H7V18.25H14.0833C14.6093 18.25 15.1482 18.0003 15.5696 17.4947C15.9942 16.9851 16.25 16.2691 16.25 15.5C16.25 14.7309 15.9942 14.0149 15.5696 13.5053C15.1482 12.9997 14.6093 12.75 14.0833 12.75H9.91667C8.89549 12.75 7.95073 12.2622 7.27811 11.455C6.6088 10.6518 6.25 9.58743 6.25 8.5C6.25 7.41257 6.6088 6.34815 7.27811 5.54499C7.95073 4.73784 8.89549 4.25 9.91667 4.25H11.25Z" fill="black"/>
</svg>
