<svg width="24" height="24" viewBox="0 0 24 24" fill="none" xmlns="http://www.w3.org/2000/svg">
<path d="M12 22C17.5228 22 22 17.5228 22 12C22 6.47715 17.5228 2 12 2C6.47715 2 2 6.47715 2 12C2 17.5228 6.47715 22 12 22Z" stroke="black" stroke-width="1.5"/>
<path d="M2 12H22" stroke="black" stroke-width="1.5"/>
<path d="M12 2L12.5538 1.49418H11.4462L12 2ZM16 12L16.7498 12.0156L16.7502 12L16.7498 11.9844L16 12ZM12 22L11.4462 22.5058H12.5538L12 22ZM8 12L7.25016 11.9844L7.24984 12L7.25016 12.0156L8 12ZM11.4462 2.50582C13.8249 5.10994 15.1767 8.48942 15.2502 12.0156L16.7498 11.9844C16.6688 8.09465 15.1777 4.36677 12.5538 1.49418L11.4462 2.50582ZM15.2502 11.9844C15.1767 15.5106 13.8249 18.8901 11.4462 21.4942L12.5538 22.5058C15.1777 19.6332 16.6688 15.9054 16.7498 12.0156L15.2502 11.9844ZM12.5538 21.4942C10.1751 18.8901 8.8233 15.5106 8.74984 11.9844L7.25016 12.0156C7.3312 15.9054 8.82235 19.6332 11.4462 22.5058L12.5538 21.4942ZM8.74984 12.0156C8.8233 8.48942 10.1751 5.10994 12.5538 2.50582L11.4462 1.49418C8.82235 4.36677 7.3312 8.09465 7.25016 11.9844L8.74984 12.0156Z" fill="black"/>
</svg>
