<svg width="24" height="24" viewBox="0 0 24 24" fill="none" xmlns="http://www.w3.org/2000/svg">
<path fill-rule="evenodd" clip-rule="evenodd" d="M10.5609 22.6451C12.8586 22.97 15.1989 22.5355 17.2291 21.4073C19.2593 20.2792 20.8689 18.5188 21.8163 16.3921C22.7637 14.2655 22.9978 11.8872 22.4835 9.61549C21.9692 7.34372 20.7342 5.3008 18.9638 3.79492C17.1933 2.28898 14.9834 1.4018 12.6668 1.26778C10.3503 1.13376 8.05346 1.7602 6.12254 3.05218C4.19168 4.34412 2.73153 6.23135 1.96129 8.42897L1.71322 9.13676L3.12879 9.6329L3.37686 8.92512C4.04002 7.03302 5.29667 5.40957 6.95669 4.29886C8.61664 3.18818 10.5902 2.65015 12.5802 2.76528C14.5701 2.88041 16.4695 3.64252 17.9919 4.9375C19.5145 6.23253 20.5776 7.99043 21.0205 9.94669C21.4634 11.903 21.2617 13.9509 20.4461 15.7817C19.6306 17.6125 18.2456 19.1265 16.5005 20.0962C14.7556 21.0658 12.7448 21.439 10.7709 21.1598C8.79764 20.8808 6.96738 19.9647 5.55597 18.5489L2.79386 15.75H7V14.25H1H0.25V15V21H1.75V16.8277L4.48963 19.6038L4.49219 19.6064C6.13339 21.2534 8.26317 22.3201 10.5609 22.6451ZM11.25 6V12V12.4014L11.584 12.624L14.584 14.624L15.416 13.376L12.75 11.5986V6H11.25Z" fill="black"/>
</svg>
