<svg width="24" height="24" viewBox="0 0 24 24" fill="none" xmlns="http://www.w3.org/2000/svg">
<path d="M12 22C17.5228 22 22 17.5228 22 12C22 6.47715 17.5228 2 12 2C6.47715 2 2 6.47715 2 12C2 17.5228 6.47715 22 12 22Z" fill="black"/>
<path fill-rule="evenodd" clip-rule="evenodd" d="M11.25 7.25001V6H12.75V7.25001H14.3809V8.75001H10.8095C10.6151 8.75001 10.3941 8.84163 10.2072 9.06593C10.0169 9.29422 9.89285 9.62875 9.89285 10C9.89285 10.3713 10.0169 10.7058 10.2072 10.9341C10.3941 11.1584 10.6151 11.25 10.8095 11.25H13.1905C13.8801 11.25 14.5069 11.5798 14.9451 12.1057C15.38 12.6275 15.6071 13.3104 15.6071 14C15.6071 14.6896 15.38 15.3725 14.9451 15.8944C14.5069 16.4202 13.8801 16.75 13.1905 16.75H12.75V18H11.25V16.75H9.14285V15.25H13.1905C13.3849 15.25 13.6059 15.1584 13.7928 14.9341C13.9831 14.7058 14.1071 14.3713 14.1071 14C14.1071 13.6287 13.9831 13.2942 13.7928 13.0659C13.6059 12.8416 13.3849 12.75 13.1905 12.75H10.8095C10.1199 12.75 9.49305 12.4202 9.05484 11.8944C8.61996 11.3725 8.39285 10.6896 8.39285 10C8.39285 9.3104 8.61996 8.62751 9.05484 8.10566C9.49305 7.57981 10.1199 7.25001 10.8095 7.25001H11.25Z" fill="white"/>
</svg>
