<svg width="24" height="24" viewBox="0 0 24 24" fill="none" xmlns="http://www.w3.org/2000/svg">
<path d="M23 7V1H17" stroke="black" stroke-width="1.5"/>
<path d="M16 8L23 1" stroke="black" stroke-width="1.5"/>
<path fill-rule="evenodd" clip-rule="evenodd" d="M4.93745 6.99999V4.5H6.43745V6.99999H9.55652V8.49999H3.75295C3.28229 8.49999 2.7963 8.72331 2.41404 9.18203C2.02844 9.64474 1.79462 10.2972 1.79462 11C1.79462 11.7028 2.02844 12.3552 2.41404 12.8179C2.7963 13.2767 3.28229 13.5 3.75295 13.5H7.622C8.58792 13.5 9.47969 13.9615 10.1132 14.7218C10.7435 15.478 11.0803 16.4789 11.0803 17.5C11.0803 18.5211 10.7435 19.5219 10.1132 20.2782C9.47969 21.0385 8.58792 21.5 7.622 21.5H6.43745V24H4.93745V21.5H1.04462V20H7.622C8.09266 20 8.57865 19.7767 8.96091 19.3179C9.3465 18.8552 9.58033 18.2028 9.58033 17.5C9.58033 16.7972 9.3465 16.1447 8.96091 15.682C8.57865 15.2233 8.09266 15 7.622 15H3.75295C2.78702 15 1.89526 14.5385 1.2617 13.7782C0.631472 13.0219 0.294617 12.0211 0.294617 11C0.294617 9.97886 0.631472 8.97803 1.2617 8.22176C1.89526 7.46149 2.78702 6.99999 3.75295 6.99999H4.93745Z" fill="black"/>
</svg>
