<svg width="24" height="24" viewBox="0 0 24 24" fill="none" xmlns="http://www.w3.org/2000/svg">
<path fill-rule="evenodd" clip-rule="evenodd" d="M22 3H2V4.5L22 4.5V3ZM4.75088 7.00022L4.75009 18.7177L5.80871 18.1223C6.34143 17.8226 6.9919 17.8226 7.52462 18.1223L9.33333 19.1397L11.142 18.1223C11.6748 17.8226 12.3252 17.8226 12.858 18.1223L14.6667 19.1397L16.4754 18.1223C17.0081 17.8226 17.6586 17.8226 18.1913 18.1223L19.25 18.7178L19.2499 7.00017L20.7499 7.00016L20.75 20.0002L20.75 21.2826L19.6323 20.6538L17.4559 19.4296C17.3798 19.3868 17.2869 19.3868 17.2108 19.4296L15.0344 20.6538L14.6667 20.8607L14.299 20.6538L12.1226 19.4296C12.0465 19.3868 11.9535 19.3868 11.8774 19.4296L9.70103 20.6538L9.33333 20.8607L8.96564 20.6538L6.78923 19.4296C6.71313 19.3868 6.6202 19.3868 6.5441 19.4296L4.3677 20.6538L3.24991 21.2826L3.25 20.0001L3.25088 7.00012L4.75088 7.00022ZM13 10.75H8V9.25H13V10.75ZM8 14.75H13V13.25H8V14.75ZM16 10.75H14.5V9.25H16V10.75ZM14.5 14.75H16V13.25H14.5V14.75Z" fill="#121212"/>
</svg>
