<svg width="24" height="24" viewBox="0 0 24 24" fill="none" xmlns="http://www.w3.org/2000/svg">
<path fill-rule="evenodd" clip-rule="evenodd" d="M17.4678 2.49998V0H18.9678V2.49998H22.0869V3.99998H16.2833C15.8127 3.99998 15.3267 4.22331 14.9444 4.68203C14.5588 5.14473 14.325 5.7972 14.325 6.49998C14.325 7.20276 14.5588 7.85523 14.9444 8.31794C15.3267 8.77666 15.8127 8.99998 16.2833 8.99998H20.1524C21.1183 8.99998 22.0101 9.46148 22.6436 10.2217C23.2739 10.978 23.6107 11.9789 23.6107 13C23.6107 14.0211 23.2739 15.0219 22.6436 15.7782C22.0101 16.5385 21.1183 17 20.1524 17H18.9678V19.5H17.4678V17H13.575V15.5H20.1524C20.6231 15.5 21.109 15.2767 21.4913 14.8179C21.8769 14.3552 22.1107 13.7028 22.1107 13C22.1107 12.2972 21.8769 11.6447 21.4913 11.182C21.109 10.7233 20.6231 10.5 20.1524 10.5H16.2833C15.3174 10.5 14.4257 10.0385 13.7921 9.27822C13.1619 8.52194 12.825 7.52111 12.825 6.49998C12.825 5.47886 13.1619 4.47803 13.7921 3.72175C14.4257 2.96148 15.3174 2.49998 16.2833 2.49998H17.4678Z" fill="black"/>
<path d="M1.5 16.905L1.5 22.905L7.5 22.905" stroke="black" stroke-width="1.5"/>
<path d="M8.49994 15.9L2 22.4" stroke="black" stroke-width="1.5"/>
</svg>
