<svg width="24" height="24" viewBox="0 0 24 24" fill="none" xmlns="http://www.w3.org/2000/svg">
<path fill-rule="evenodd" clip-rule="evenodd" d="M14.25 6V4.75H7.75V6H6.25V4.75H4.77778C4.21015 4.75 3.75 5.21015 3.75 5.77778V18.2222C3.75 18.7898 4.21015 19.25 4.77778 19.25H9.08249C8.55187 18.2859 8.25 17.1782 8.25 16C8.25 12.2721 11.2721 9.25 15 9.25C16.1782 9.25 17.2859 9.55187 18.25 10.0825V5.77778C18.25 5.21015 17.7898 4.75 17.2222 4.75H15.75V6H14.25ZM6.25 3.25H4.77778C3.38172 3.25 2.25 4.38172 2.25 5.77778V18.2222C2.25 19.6183 3.38172 20.75 4.77778 20.75H10.2042C11.4274 21.985 13.1244 22.75 15 22.75C18.7279 22.75 21.75 19.7279 21.75 16C21.75 14.0177 20.8955 12.2349 19.5347 11H19.75V5.77778C19.75 4.38172 18.6183 3.25 17.2222 3.25H15.75V2H14.25V3.25H7.75V2H6.25V3.25ZM15 10.75C12.1005 10.75 9.75 13.1005 9.75 16C9.75 18.8995 12.1005 21.25 15 21.25C17.8995 21.25 20.25 18.8995 20.25 16C20.25 13.1005 17.8995 10.75 15 10.75ZM14.25 16V12.4H15.75V15.5365L17.7354 16.5292L17.0646 17.8708L14.6646 16.6708L14.25 16.4635V16Z" fill="black"/>
</svg>
