<svg width="24" height="24" viewBox="0 0 24 24" fill="none" xmlns="http://www.w3.org/2000/svg">
<path fill-rule="evenodd" clip-rule="evenodd" d="M16.6428 4.49998V2H18.1428V4.49998H21.2619V5.99998H15.4583C14.9877 5.99998 14.5017 6.22331 14.1194 6.68203C13.7338 7.14473 13.5 7.7972 13.5 8.49998C13.5 9.20276 13.7338 9.85523 14.1194 10.3179C14.5017 10.7767 14.9877 11 15.4583 11H19.3274C20.2933 11 21.1851 11.4615 21.8186 12.2217C22.4489 12.978 22.7857 13.9789 22.7857 15C22.7857 16.0211 22.4489 17.0219 21.8186 17.7782C21.1851 18.5385 20.2933 19 19.3274 19H18.1428V21.5H16.6428V19H12.75V17.5H19.3274C19.7981 17.5 20.284 17.2767 20.6663 16.8179C21.0519 16.3552 21.2857 15.7028 21.2857 15C21.2857 14.2972 21.0519 13.6447 20.6663 13.182C20.284 12.7233 19.7981 12.5 19.3274 12.5H15.4583C14.4924 12.5 13.6007 12.0385 12.9671 11.2782C12.3369 10.5219 12 9.52111 12 8.49998C12 7.47886 12.3369 6.47803 12.9671 5.72175C13.6007 4.96148 14.4924 4.49998 15.4583 4.49998H16.6428ZM8.0672 11.3085L10.2358 13.8085L11.3127 15.05H9.66927H3.0026V13.55H8.02583L6.9341 12.2915L8.0672 11.3085ZM1.76722 18.7912L3.93388 21.2912L5.06742 20.3088L3.97646 19.05H9.00065V17.55H2.33398H0.691513L1.76722 18.7912Z" fill="black"/>
</svg>
