<svg width="24" height="24" viewBox="0 0 24 24" fill="none" xmlns="http://www.w3.org/2000/svg">
<path d="M23 7H23.75V5.54261L22.5641 6.3897L23 7ZM16 12L15.5641 11.3897V12.6103L16 12ZM23 17L22.5641 17.6103L23.75 18.4574V17H23ZM22.5641 6.3897L15.5641 11.3897L16.4359 12.6103L23.4359 7.6103L22.5641 6.3897ZM15.5641 12.6103L22.5641 17.6103L23.4359 16.3897L16.4359 11.3897L15.5641 12.6103ZM23.75 17V7H22.25V17H23.75Z" fill="black"/>
<path d="M14 5H3C1.89543 5 1 5.89543 1 7V17C1 18.1046 1.89543 19 3 19H14C15.1046 19 16 18.1046 16 17V7C16 5.89543 15.1046 5 14 5Z" stroke="black" stroke-width="1.5"/>
</svg>
