<svg width="24" height="24" viewBox="0 0 24 24" fill="none" xmlns="http://www.w3.org/2000/svg">
<path fill-rule="evenodd" clip-rule="evenodd" d="M3.5 2.25C1.98122 2.25 0.75 3.48122 0.75 5V19C0.75 20.5188 1.98122 21.75 3.5 21.75H10C11.5188 21.75 12.75 20.5188 12.75 19V5C12.75 3.48122 11.5188 2.25 10 2.25H3.5ZM2.25 5C2.25 4.30964 2.80964 3.75 3.5 3.75H10C10.6904 3.75 11.25 4.30964 11.25 5V19C11.25 19.6904 10.6904 20.25 10 20.25H3.5C2.80964 20.25 2.25 19.6904 2.25 19V5ZM21.5079 11.57C21.5079 14.0227 20.5338 16.3751 18.7997 18.1097L19.8605 19.1702C21.8758 17.1543 23.0079 14.4205 23.0079 11.57C23.0079 8.71944 21.8758 5.98563 19.8605 3.96971L18.7997 5.03021C20.5338 6.76484 21.5079 9.11719 21.5079 11.57ZM17.1096 13.5854C16.8454 14.2227 16.4582 14.8017 15.97 15.2893L17.0301 16.3506C17.6577 15.7237 18.1556 14.9792 18.4953 14.1598C18.8349 13.3404 19.0098 12.462 19.0098 11.575C19.0098 10.6879 18.8349 9.80954 18.4953 8.99011C18.1556 8.17067 17.6577 7.42622 17.0301 6.79933L15.97 7.86058C16.4582 8.34816 16.8454 8.92718 17.1096 9.56452C17.3738 10.2019 17.5098 10.885 17.5098 11.575C17.5098 12.2649 17.3738 12.948 17.1096 13.5854Z" fill="black"/>
</svg>
