<svg width="24" height="24" viewBox="0 0 24 24" fill="none" xmlns="http://www.w3.org/2000/svg">
<path fill-rule="evenodd" clip-rule="evenodd" d="M7.73038 5.59332C6.61976 5.59332 5.56265 6.0104 4.78965 6.74046C4.49672 7.01711 4.25377 7.32983 4.06507 7.66668C4.31183 7.59401 4.57301 7.55502 4.84329 7.55502L17.6709 7.55501V5.59332H7.73038ZM3.59329 10.3039V11.7667L3.59329 17.844C3.59329 18.5343 4.15294 19.094 4.84329 19.094L19.3056 19.094C19.996 19.094 20.5556 18.5343 20.5556 17.844V10.305C20.5556 9.61466 19.996 9.05501 19.3056 9.05501L4.84329 9.05502C4.1533 9.05502 3.59389 9.61406 3.59329 10.3039ZM2.09329 9.45891V10.305V11.7667V17.844C2.09329 19.3628 3.32451 20.594 4.84329 20.594H19.3056C20.8244 20.594 22.0556 19.3628 22.0556 17.844V10.305C22.0556 8.78623 20.8244 7.55501 19.3056 7.55501H19.1709V4.84332V4.09332H18.4209H7.73038C6.24872 4.09332 4.81974 4.64881 3.75972 5.64994C2.69825 6.65244 2.09329 8.02158 2.09329 9.45891ZM16.1131 14.8245H18.4209V13.3245H16.1131V14.8245Z" fill="black"/>
</svg>
